-
 
http://www.Speed. Cd       the fast  and The Hottest Private Tracker on the net 
http://www.Speed. Cd

Please Seed back to make the speed Faster!!
 ............ NFO .............
-
 
http://www.Speed. Cd[center][IMG]http://lookpic.com/O/i2/611/Ucnmnk6d.jpeg[/IMG][/center]
[center][IMG]http://lookpic.com/O/i2/1404/osntOVDU.jpeg[/IMG][/center] 
http://www.imdb.com/title/tt2243537/

Source: 720p SPARKS THX :)

A.Haunted.House.2013.BRRip.X264.AAC-*THC*

Format                                   : MPEG-4
Format profile                           : Base Media
Codec ID                                 : isom
File size                                : 701 MiB
Duration                                 : 1h 26mn
Overall bit rate mode                    : Variable
Overall bit rate                         : 1 133 Kbps
Encoded date                             : UTC 2013-04-14 21:59:01
Tagged date                              : UTC 2013-04-14 21:59:01

Video
ID                                       : 1
Format                                   : AVC
Format/Info                              : Advanced Video Codec
Format profile                           : High@L4.1
Format settings, CABAC                   : Yes
Format settings, ReFrames                : 5 frames
Codec ID                                 : avc1
Codec ID/Info                            : Advanced Video Coding
Duration                                 : 1h 26mn
Bit rate mode                            : Variable
Bit rate                                 : 999 Kbps
Maximum bit rate                         : 40.0 Mbps
Width                                    : 624 pixels
Height                                   : 336 pixels
Display aspect ratio                     : 1.85:1
Frame rate mode                          : Constant
Frame rate                               : 23.976 fps
Color space                              : YUV
Chroma subsampling                       : 4:2:0
Bit depth                                : 8 bits
Scan type                                : Progressive
Bits/(Pixel*Frame)                       : 0.199
Stream size                              : 619 MiB (88%)
Writing library                          : x264 core 130 r2273 b3065e6

Encoded date                             : UTC 2013-04-14 21:59:01
Tagged date                              : UTC 2013-04-14 21:59:28

Audio
ID                                       : 2
Format                                   : AAC
Format/Info                              : Advanced Audio Codec
Format profile                           : LC
Codec ID                                 : 40
Duration                                 : 1h 26mn
Bit rate mode                            : Variable
Bit rate                                 : 128 Kbps
Maximum bit rate                         : 138 Kbps
Channel(s)                               : 2 channels
Channel positions                        : Front: L R
Sampling rate                            : 48.0 KHz
Compression mode                         : Lossy
Stream size                              : 79.1 MiB (11%)
Encoded date                             : UTC 2013-04-14 21:39:36
Tagged date                              : UTC 2013-04-14 21:59:28

[center][img]http://lookpic.com/O/i2/1021/PNmtZNoN.png[/img][/center]
[center][img]http://lookpic.com/O/i2/1812/Gt4Mzax.png[/img][/center]
[center][img]http://lookpic.com/O/i2/1786/w7DL35yO.png[/img][/center]
[center][img]http://lookpic.com/O/i2/102/1WUimazk.png[/img][/center]